# xmcd
#
# Track frame offsets: 
#        150
#        1105
#        18148
#        42801
#        66083
#        104395
#        121567
#        149650
#        173282
#        200648
#        284622
#
# Disc length: 4220 seconds
#
# Revision: 2
# Processed by: cddbd v1.5.2PL0 Copyright (c) Steve Scherf et al.
# Submitted via: ExactAudioCopy v1.0b4
#
DISCID=8b107a0b
DTITLE=Pete Cornelius And The DeVilles - Live@Narooma
DYEAR=1999
DGENRE=Blues
TTITLE0=Introduction
TTITLE1=Coming Home
TTITLE2=Leave my little girl alone
TTITLE3=If you be my baby
TTITLE4=afterschool blues
TTITLE5=I'm tore down
TTITLE6=Something inside of me 
TTITLE7=Heartbreaker
TTITLE8=All my heroes are dead
TTITLE9=Hey Joe, Voodoo chile, Little wing
TTITLE10=baby please don't go
EXTD=ID3G:   0
EXTT0=
EXTT1=
EXTT2=
EXTT3=
EXTT4=
EXTT5=
EXTT6=
EXTT7=
EXTT8=
EXTT9=
EXTT10=
PLAYORDER=
